<?xml version="1.0" encoding="UTF-8" standalone="no"?>
<!-- Created with Inkscape (http://www.inkscape.org/) -->

<svg
   width="297mm"
   height="210mm"
   viewBox="0 0 297 210"
   version="1.1"
   id="svg9590"
   inkscape:export-filename="pressure_curve.svg"
   inkscape:export-xdpi="96"
   inkscape:export-ydpi="96"
   inkscape:version="1.2.2 (732a01da63, 2022-12-09)"
   sodipodi:docname="pressure_curve.svg"
   xmlns:inkscape="http://www.inkscape.org/namespaces/inkscape"
   xmlns:sodipodi="http://sodipodi.sourceforge.net/DTD/sodipodi-0.dtd"
   xmlns="http://www.w3.org/2000/svg"
   xmlns:svg="http://www.w3.org/2000/svg">
  <sodipodi:namedview
     id="namedview9592"
     pagecolor="#ffffff"
     bordercolor="#999999"
     borderopacity="1"
     inkscape:showpageshadow="0"
     inkscape:pageopacity="0"
     inkscape:pagecheckerboard="0"
     inkscape:deskcolor="#d1d1d1"
     inkscape:document-units="mm"
     showgrid="false"
     inkscape:zoom="0.73584456"
     inkscape:cx="566.01628"
     inkscape:cy="314.60449"
     inkscape:window-width="1920"
     inkscape:window-height="1013"
     inkscape:window-x="-9"
     inkscape:window-y="-9"
     inkscape:window-maximized="1"
     inkscape:current-layer="layer1" />
  <defs
     id="defs9587">
    <rect
       x="780.05605"
       y="388.66904"
       width="531.36222"
       height="217.43723"
       id="rect32387" />
    <rect
       x="59.795237"
       y="42.128463"
       width="373.7202"
       height="112.79556"
       id="rect31551" />
    <rect
       x="13.589827"
       y="445.74632"
       width="165.79589"
       height="183.46266"
       id="rect31545" />
    <rect
       x="818.10757"
       y="404.97684"
       width="608.82424"
       height="235.104"
       id="rect31437" />
    <rect
       x="336.33105"
       y="524.67644"
       width="685.1544"
       height="90.328911"
       id="rect29016" />
    <rect
       x="239.18095"
       y="39.410497"
       width="795.00486"
       height="146.77013"
       id="rect28628" />
    <rect
       x="443.02835"
       y="119.59047"
       width="337.0277"
       height="125.02641"
       id="rect28622" />
    <rect
       x="58.436255"
       y="241.89892"
       width="88.333874"
       height="194.33452"
       id="rect13309" />
  </defs>
  <g
     inkscape:label="Calque 1"
     inkscape:groupmode="layer"
     id="layer1">
    <path
       style="fill:#000000;fill-opacity:1;stroke:#000000;stroke-width:2;stroke-dasharray:none;stroke-dashoffset:0;stroke-opacity:1;paint-order:normal"
       d="M 49.619854,188.77118 48.541161,23.012106"
       id="path12351" />
    <path
       style="fill:#000000;fill-opacity:1;stroke:#000000;stroke-width:1.95888;stroke-dasharray:none;stroke-dashoffset:0;stroke-opacity:1;paint-order:normal"
       d="M 39.782179,31.042937 48.9526,23.09067"
       id="path12416" />
    <path
       style="fill:#000000;fill-opacity:1;stroke:#000000;stroke-width:2.20575;stroke-dasharray:none;stroke-dashoffset:0;stroke-opacity:1;paint-order:normal"
       d="M 56.538833,31.602479 47.89725,22.617002"
       id="path12418" />
    <path
       style="display:inline;fill:#000000;fill-opacity:1;stroke:#000000;stroke-width:2.38756;stroke-dasharray:none;stroke-dashoffset:0;stroke-opacity:1;paint-order:normal"
       d="M 276.43065,179.05826 37.645974,180.12539"
       id="path12351-9" />
    <path
       style="fill:#000000;fill-opacity:1;stroke:#000000;stroke-width:1.98816;stroke-dasharray:none;stroke-dashoffset:0;stroke-opacity:1;paint-order:normal"
       d="m 277.26406,179.69553 -8.66554,-8.66982"
       id="path12416-9" />
    <path
       style="fill:#000000;fill-opacity:1;stroke:#000000;stroke-width:2.20575;stroke-dasharray:none;stroke-dashoffset:0;stroke-opacity:1;paint-order:normal"
       d="m 267.89142,187.87963 8.58379,-9.0407"
       id="path12418-9" />
    <path
       style="fill:#00a6d6;fill-opacity:1;stroke:#00a6d6;stroke-width:0.7;stroke-dasharray:none;stroke-dashoffset:0;stroke-opacity:1;paint-order:normal"
       id="path12472"
       d="m 52.979994,126.93537 c 1.722562,-0.97094 3.489431,-1.88807 5.359172,-2.54605 0.694817,-0.24451 1.404229,-0.44538 2.106343,-0.66807 6.032802,-1.71799 12.316074,-2.25543 18.526617,-2.95293 7.108301,-0.79173 14.259994,-1.27204 21.340314,-2.30594 1.42083,-0.20747 2.83398,-0.46459 4.25096,-0.69689 6.16526,-1.1097 12.10958,-3.15561 17.85317,-5.62508 3.15382,-1.35599 5.46431,-2.54476 8.53381,-4.0591 4.77131,-2.38568 9.43515,-4.98118 14.2279,-7.32463 2.86696,-1.401819 3.7814,-1.785801 6.6748,-3.087638 4.53986,-1.994691 9.15956,-3.824872 13.89066,-5.318376 3.22243,-1.017255 4.03922,-1.176325 7.2601,-1.99221 5.98115,-1.546595 12.13262,-2.036765 18.28137,-2.283579 3.76211,-0.156085 7.52834,-0.06403 11.29164,-0.119046 1.70497,-0.02492 4.47933,-0.135128 6.18229,-0.197073 5.1845,-0.07604 10.27765,-1.012076 15.34919,-1.993095 3.70963,-0.812398 7.3492,-1.901995 11.0408,-2.794455 3.46906,-0.91376 6.95219,-1.784721 10.39768,-2.785944 3.49012,-1.088178 7.01791,-2.055574 10.55079,-2.994641 2.44846,-0.655159 4.91006,-1.258313 7.3657,-1.885649 1.96402,-0.625004 3.94398,-1.125119 5.97008,-1.495462 1.18711,-0.199474 0.60201,-0.108796 1.75503,-0.273457 0,0 -0.79443,-0.559943 -0.79443,-0.559943 v 0 c -1.15237,0.168757 -0.56775,0.07626 -1.75366,0.278844 -2.02645,0.370822 -4.00291,0.885378 -5.96852,1.504628 -2.45326,0.624924 -4.91022,1.234371 -7.35425,1.894885 -3.52811,0.949994 -7.05465,1.91318 -10.54264,3.002639 -3.4474,0.99981 -6.93361,1.863186 -10.40449,2.776167 -3.68477,0.896438 -7.31499,1.999324 -11.02112,2.802803 -5.06126,0.98103 -10.14212,1.924428 -15.31717,1.998491 -1.87249,0.06762 -4.31057,0.166319 -6.18464,0.191447 -3.76449,0.05047 -7.53187,-0.04093 -11.29498,0.121052 -6.14694,0.252613 -12.2957,0.750356 -18.27151,2.313255 -3.188,0.815437 -4.06634,0.994619 -7.25731,2.002157 -4.73438,1.494864 -9.36143,3.319037 -13.90226,5.320919 -2.82848,1.275969 -3.87196,1.719887 -6.67358,3.093001 -4.78592,2.34566 -9.44132,4.94569 -14.20196,7.34087 -3.08092,1.52229 -5.35674,2.69641 -8.52358,4.05823 -5.74393,2.47004 -11.69388,4.49066 -17.85896,5.59853 -1.41629,0.23159 -2.82884,0.48733 -4.248864,0.69476 -7.083364,1.03474 -14.237734,1.51098 -21.349652,2.29752 -6.230586,0.68599 -12.531823,1.21591 -18.584714,2.93376 -0.708234,0.22127 -1.423773,0.42039 -2.124705,0.66381 -1.884143,0.65433 -3.660614,1.57438 -5.401601,2.53693 0,0 0.82618,0.53456 0.82618,0.53456 z" />
    <path
       style="fill:none;fill-opacity:1;stroke:#fd0009;stroke-width:1.06308;stroke-dasharray:2.12615, 1.06308;stroke-dashoffset:0;stroke-opacity:1;paint-order:normal"
       d="M 271.04129,70.873571 50.640885,126.9001"
       id="path13672" />
    <text
       xml:space="preserve"
       transform="matrix(0.26458333,0,0,0.26458333,-0.61918638,29.124697)"
       id="text28626"
       style="font-size:85.3333px;white-space:pre;shape-inside:url(#rect28628);display:inline;fill:#00a6d6;fill-opacity:1;stroke:#00a6d6;stroke-width:3.02362;stroke-dasharray:none;stroke-dashoffset:0;stroke-opacity:1;paint-order:normal"><tspan
         x="239.18164"
         y="117.26231"
         id="tspan38280"><tspan
           style="font-family:'Ink Free';-inkscape-font-specification:'Ink Free'"
           id="tspan38278">Experimental Data </tspan></tspan></text>
    <path
       style="fill:#00a6d6;fill-opacity:1;stroke:none;stroke-width:0.1;stroke-dasharray:none;stroke-dashoffset:0;stroke-opacity:1;paint-order:normal"
       id="path28960"
       d="m 133.71575,64.083652 c 1.29122,2.983243 2.44614,6.023758 3.58935,9.066146 1.10723,3.002352 2.37952,5.937523 3.74269,8.8314 0.65312,1.320334 1.31315,2.645148 2.15058,3.860917 0.44508,0.64617 0.65061,0.881456 1.1354,1.487431 1.02714,1.261655 2.24517,2.328982 3.48967,3.366236 0.78093,0.621321 1.59353,1.207807 2.43563,1.743943 0.91699,0.516226 1.80511,1.087453 2.75096,1.548675 0.20502,0.09998 0.38867,-0.372833 0.40024,-0.414118 0.15576,-0.556067 -0.0468,-1.234067 -0.14672,-1.772883 -0.34342,-1.688962 -0.89127,-3.323653 -1.35722,-4.979977 -0.0475,-0.191153 -0.0973,-0.381767 -0.14263,-0.57346 -0.0346,-0.146564 -0.0649,-0.29413 -0.0972,-0.441225 -0.0178,-0.08079 -0.0355,-0.16157 -0.053,-0.242419 -0.008,-0.03704 0.0109,-0.09511 -0.0234,-0.111247 -2.81609,-1.325041 -2.83845,-2.118376 -2.6369,-0.817605 0.23735,1.28229 0.59047,2.538236 0.92063,3.798636 0.25356,1.121233 0.57776,2.225342 0.80846,3.351663 0.0291,0.273669 0.16878,0.653269 -0.0106,0.913455 -0.2026,0.293939 -0.80602,0.301998 -1.09266,0.35007 -0.24015,0.0061 -0.4806,0.03184 -0.72045,0.01828 -1.79794,-0.101677 -3.55025,-0.775901 -5.22557,-1.377767 -1.16617,-0.44145 -2.29727,-0.964769 -3.42475,-1.494954 0,0 2.1628,1.719818 2.1628,1.719818 v 0 c 1.12996,0.518075 2.26291,1.030647 3.42841,1.465447 1.72313,0.609545 3.52086,1.28645 5.37035,1.354479 0.257,0.0094 0.51386,-0.02225 0.7708,-0.03337 0.3764,-0.07286 0.7233,-0.09476 1.05193,-0.310933 0.46293,-0.30452 0.40765,-0.867958 0.31096,-1.334101 -0.22851,-1.145606 -0.61283,-2.253583 -0.86216,-3.394932 -0.31805,-1.237078 -0.675,-2.469886 -0.84749,-3.738115 -0.25804,-1.248982 0.0184,-0.253021 -2.72526,-1.68469 -0.0303,-0.01582 0.0606,0.03753 0.0775,0.06726 0.22244,0.39099 0.2057,0.880885 0.37568,1.289682 0.49292,1.642607 1.07876,3.261471 1.37996,4.955677 0.0657,0.40885 0.14773,0.812626 0.16055,1.22777 8e-4,0.02771 -0.002,0.397203 -0.051,0.411925 -0.0376,0.01135 -0.14569,-0.05699 -0.11196,-0.03684 0.76111,0.454702 1.53097,0.894603 2.29646,1.341903 -0.88415,-0.502177 -1.70033,-1.124657 -2.51589,-1.728661 -0.58247,-0.479938 -1.17908,-0.941813 -1.73577,-1.452261 -0.56669,-0.519604 -0.69229,-0.663932 -1.21908,-1.229415 -0.20146,-0.216255 -0.4007,-0.434562 -0.60105,-0.651844 -0.49033,-0.592425 -0.71091,-0.838459 -1.16331,-1.46999 -0.86684,-1.210046 -1.55533,-2.536772 -2.23543,-3.857001 -1.41894,-2.890038 -2.69423,-5.846016 -3.84486,-8.853302 -1.1407,-2.96854 -2.2872,-5.937483 -3.30606,-8.950417 0,0 -2.65858,-1.219274 -2.65858,-1.219274 z" />
    <text
       xml:space="preserve"
       transform="scale(0.26458333)"
       id="text29014"
       style="font-style:normal;font-variant:normal;font-weight:normal;font-stretch:normal;font-size:85.3333px;font-family:'Ink Free';-inkscape-font-specification:'Ink Free';white-space:pre;shape-inside:url(#rect29016);display:inline;fill:#00a6d6;fill-opacity:1;stroke:#00a6d6;stroke-width:3.02362;stroke-dasharray:none;stroke-dashoffset:0;stroke-opacity:1;paint-order:normal" />
    <text
       xml:space="preserve"
       style="font-style:normal;font-variant:normal;font-weight:normal;font-stretch:normal;font-size:22.5778px;font-family:'Ink Free';-inkscape-font-specification:'Ink Free';fill:#fd0009;fill-opacity:1;stroke:#fd000a;stroke-width:0.799999;stroke-dasharray:none;stroke-dashoffset:0;stroke-opacity:1;paint-order:normal"
       x="91.021584"
       y="151.27892"
       id="text29748"><tspan
         sodipodi:role="line"
         id="tspan29746"
         style="fill:#fd0009;fill-opacity:1;stroke:#fd000a;stroke-width:0.8;stroke-opacity:1"
         x="91.021584"
         y="151.27892">Trend curve</tspan></text>
    <path
       style="fill:#fd0009;fill-opacity:1;stroke:#fd000a;stroke-width:0.0742227;stroke-dasharray:none;stroke-dashoffset:0;stroke-opacity:0.627451;paint-order:normal"
       id="path31427"
       d="m 157.52581,129.45929 c 0.8472,-1.43184 1.67315,-2.90098 2.50627,-4.35806 1.15597,-2.12612 2.28724,-4.2923 3.35567,-6.55637 0.8605,-1.73694 1.54416,-3.69892 2.27273,-5.60383 0.60736,-1.54338 1.11905,-3.19674 1.59872,-4.87138 0.3444,-1.21721 0.65564,-2.46211 0.95503,-3.7153 0.38319,-1.72928 0.0134,-1.48312 -1.44619,-2.54692 -0.0862,-0.0628 -0.18026,0.0883 -0.26663,0.15066 -0.14056,0.10139 -0.27527,0.22635 -0.4129,0.33954 -1.50693,1.45556 -2.98742,3.00032 -4.52769,4.3456 0.46845,1.35898 -0.64466,-0.10123 -0.49359,0.0136 0.49463,0.37604 0.93427,1.02382 1.46228,1.21242 0.14148,0.0505 0.17505,-0.40517 0.27245,-0.59279 0.33721,-0.6496 0.58068,-0.99113 0.96403,-1.58605 1.02695,-1.50032 2.08941,-2.93786 3.20821,-4.22064 0.4039,-0.37354 0.86484,-1.01096 1.35461,-0.87279 0.0834,0.0235 0.16208,0.0835 0.24312,0.12534 0.0876,0.0966 0.36014,0.35058 0.26272,0.28987 -0.33488,-0.20869 -0.64578,-0.94841 -0.98008,-0.7369 -0.23812,0.15064 0.31595,0.69741 0.45597,1.06848 0.52808,1.39957 0.91216,2.93128 1.29411,4.46337 0.33738,1.30119 0.59812,2.65402 0.84842,4.01226 0,0 1.42709,1.18057 1.42709,1.18057 v 0 c -0.26384,-1.3727 -0.53148,-2.74471 -0.87656,-4.06288 -0.37763,-1.53262 -0.75463,-3.06502 -1.25214,-4.49317 -0.13046,-0.37451 -0.22963,-0.80774 -0.42081,-1.0901 -1.13907,-1.682359 -1.22503,-1.712941 -2.06566,-2.37898 -0.0897,-0.02283 -0.17855,-0.06472 -0.26919,-0.06846 -0.51274,-0.02115 -0.96064,0.604317 -1.37793,1.034834 -1.10179,1.333166 -2.14277,2.818346 -3.18787,4.284076 -0.40637,0.60661 -0.64577,0.93217 -1.00964,1.58704 -0.11399,0.20516 -0.41265,0.40055 -0.3253,0.64285 0.30536,0.84706 0.8298,1.37931 1.27776,1.99934 0.0417,0.0578 0.1085,0.0175 0.15917,-0.0104 0.12248,-0.0676 0.23514,-0.18128 0.35271,-0.27192 1.5127,-1.44017 2.98723,-3.01101 4.54606,-4.29672 0.13995,-0.0915 0.27639,-0.2018 0.41986,-0.27445 0.0815,-0.0413 0.31623,0.0314 0.25176,-0.0656 -0.3835,-0.57756 -0.84401,-0.97454 -1.26601,-1.46181 0.0246,0.0411 0.0693,0.0642 0.0737,0.12336 0.01,0.13526 -0.10819,0.67265 -0.1238,0.75111 -0.28273,1.2594 -0.59071,2.50117 -0.92151,3.72363 -0.47052,1.67209 -0.98595,3.30473 -1.58676,4.84434 -0.70565,1.91703 -1.38629,3.86943 -2.23123,5.61222 -1.06121,2.26384 -2.18139,4.43839 -3.35467,6.52427 -0.84473,1.44491 -1.66821,2.93327 -2.5674,4.27499 0,0 1.40113,1.5318 1.40113,1.5318 z" />
    <text
       xml:space="preserve"
       transform="matrix(0.32837166,0,0,0.25697373,-65.618633,76.443806)"
       id="text31435"
       style="font-style:normal;font-variant:normal;font-weight:normal;font-stretch:normal;font-size:85.3333px;font-family:'Ink Free';-inkscape-font-specification:'Ink Free';white-space:pre;shape-inside:url(#rect31437);display:inline;fill:#000000;fill-opacity:1;stroke:#000000;stroke-width:1.7022;stroke-dasharray:none;stroke-dashoffset:0;stroke-opacity:1;paint-order:normal"><tspan
         x="818.10742"
         y="481.32221"
         id="tspan38282">time</tspan></text>
    <text
       xml:space="preserve"
       transform="matrix(0.59381792,0,0,0.5481834,0.10363645,-221.75022)"
       id="text31543"
       style="font-style:normal;font-variant:normal;font-weight:normal;font-stretch:normal;font-size:85.3333px;font-family:'Ink Free';-inkscape-font-specification:'Ink Free';white-space:pre;shape-inside:url(#rect31545);display:inline;fill:#000000;fill-opacity:1;stroke:#000000;stroke-width:0.397866;stroke-dasharray:none;stroke-dashoffset:0;stroke-opacity:1;paint-order:normal" />
    <text
       xml:space="preserve"
       transform="matrix(-8.6138917e-4,-0.25336131,0.25217489,-8.4334962e-4,3.459687,150.29965)"
       id="text31549"
       style="font-style:normal;font-variant:normal;font-weight:normal;font-stretch:normal;font-size:85.3333px;font-family:'Ink Free';-inkscape-font-specification:'Ink Free';white-space:pre;shape-inside:url(#rect31551);display:inline;fill:#000000;fill-opacity:1;stroke:#000000;stroke-width:2.17625;stroke-dasharray:none;stroke-dashoffset:0;stroke-opacity:1;paint-order:normal"><tspan
         x="59.794922"
         y="118.47455"
         id="tspan38284">Pressure</tspan></text>
    <path
       style="fill:none;fill-opacity:1;stroke:#009b77;stroke-width:1;stroke-linecap:round;stroke-dasharray:none;stroke-dashoffset:0;stroke-opacity:1;paint-order:normal;stroke-linejoin:round"
       d="m 188.41313,93.043862 43.35623,-0.455328 V 82.116007"
       id="path31555" />
    <text
       xml:space="preserve"
       transform="matrix(0.16077732,0,0,0.16186687,98.874403,37.011145)"
       id="text32385"
       style="font-style:normal;font-variant:normal;font-weight:normal;font-stretch:normal;font-size:85.3333px;font-family:'Ink Free';-inkscape-font-specification:'Ink Free';white-space:pre;shape-inside:url(#rect32387);display:inline;fill:#009b77;fill-opacity:1;stroke:#009b77;stroke-width:5.09147;stroke-linecap:round;stroke-linejoin:round;stroke-dasharray:none;stroke-dashoffset:0;stroke-opacity:1;paint-order:normal"
       x="233.68513"
       y="0"><tspan
         x="889.79067"
         y="465.01557"
         id="tspan38288"><tspan
           style="text-align:center;text-anchor:middle"
           id="tspan38286">slope at 
</tspan></tspan><tspan
         x="809.15081"
         y="571.6822"
         id="tspan38292"><tspan
           style="text-align:center;text-anchor:middle"
           id="tspan38290">steady state</tspan></tspan></text>
    <path
       style="fill:#009b77;fill-opacity:1;stroke:#009b77;stroke-width:0.552773;stroke-linecap:round;stroke-linejoin:round;stroke-dasharray:none;stroke-dashoffset:0;stroke-opacity:1;paint-order:normal"
       id="path32440"
       d="m 205.96406,116.90457 c -0.68519,-1.05979 -1.2116,-2.35122 -1.68894,-3.6936 -0.45528,-1.4272 -0.90475,-2.8626 -1.18293,-4.42256 -0.16063,-1.0117 -0.19712,-2.05772 -0.20919,-3.10043 -0.009,-0.9738 -0.003,-1.94786 10e-4,-2.9217 -0.004,-0.85022 0.0846,-1.69104 0.13725,-2.53436 0.12944,-1.683621 -0.50239,-1.256389 -1.92074,-2.601444 -0.0416,-0.03947 -0.59138,0.336608 -0.63449,0.364718 -0.59717,0.39841 -1.20844,0.743529 -1.79996,1.164936 -0.47867,0.430656 -0.90621,0.99038 -1.29129,1.63744 -0.2788,0.50419 -0.62146,0.92445 -0.86874,1.47934 0.65105,0.64023 1.26647,1.40121 1.95314,1.92068 0.0802,0.0607 0.13063,-0.20076 0.20048,-0.29142 0.40816,-0.52975 0.84779,-0.99076 1.2706,-1.48468 0.63882,-0.6376 1.24322,-1.358 1.83649,-2.112 0.40369,-0.29909 0.81535,-1.25343 1.24482,-1.32818 0.65675,0.627164 1.60061,1.3339 -1.46097,-1.406778 -0.0635,-0.05681 0.10491,0.167635 0.1523,0.259649 0.13103,0.254441 0.15721,0.355237 0.26017,0.642581 0.2453,1.05564 0.50724,2.095948 0.82331,3.095238 0.31375,0.8687 0.72195,1.63166 1.11492,2.39801 0.20687,0.39967 0.10477,0.20705 0.30589,0.5785 0,0 2.00318,1.42463 2.00318,1.42463 v 0 c -0.2151,-0.34923 -0.10892,-0.1599 -0.31624,-0.57176 -0.20407,-0.36126 -0.37767,-0.75197 -0.56868,-1.13265 -0.12748,-0.25408 -0.27345,-0.48071 -0.39502,-0.74314 -0.0662,-0.1428 -0.1217,-0.29915 -0.18255,-0.4487 -0.32283,-0.98315 -0.61743,-2.00221 -0.80733,-3.085425 -0.50294,-1.685068 -1.59214,-3.196748 -2.72441,-3.12019 -0.46984,0.346282 -0.82141,1.037606 -1.26593,1.466049 -0.58947,0.750154 -1.19489,1.455551 -1.82267,2.109276 -0.33999,0.39592 -0.68523,0.7768 -1.02684,1.16851 -0.0893,0.10244 -0.1789,0.20433 -0.26954,0.30333 -0.0615,0.0671 -0.2426,0.11478 -0.18671,0.19496 0.54363,0.7798 1.17066,1.37072 1.75599,2.05607 0.11572,-0.49997 0.62088,-0.99921 0.81962,-1.42738 0.36848,-0.61095 0.77561,-1.14741 1.24172,-1.52399 0.59001,-0.41304 1.19073,-0.78613 1.79256,-1.14507 0.0967,-0.0495 0.31383,-0.187365 0.43542,-0.169431 0.0394,0.0058 0.14242,0.116301 0.10919,0.07955 -0.57623,-0.637067 -1.1597,-1.254692 -1.73955,-1.882042 0.0186,0.03718 0.0507,0.06338 0.0556,0.11156 0.01,0.09878 -0.009,0.199825 -0.0142,0.299739 -0.0471,0.857254 -0.14205,1.709754 -0.13987,2.571804 -10e-4,0.97565 -0.008,1.95126 -0.008,2.92692 0.0144,1.07584 0.0473,2.15586 0.2041,3.20338 0.25764,1.60563 0.72992,3.05288 1.17845,4.52162 0.45785,1.34751 0.95981,2.65872 1.62126,3.74315 0,0 2.00701,1.42531 2.00701,1.42531 z" />
  </g>
</svg>
